<!-- Maskable icon: keeps the cube within the 80% "safe zone" so Android can crop
     into a circle / squircle / squarish shape without clipping the logo. -->
<svg viewBox="0 0 512 512" xmlns="http://www.w3.org/2000/svg">
  <rect width="512" height="512" fill="#0f172a"/>
  <!-- Cube grid scaled to fit in the 80% safe zone (centered ~410px). -->
  <g transform="translate(102 102) scale(0.6055)">
    <!-- Back (blue) -->
    <rect x="144" y="48" width="64" height="64" rx="8" fill="#0000f0"/>
    <rect x="224" y="48" width="64" height="64" rx="8" fill="#0000f0"/>
    <rect x="304" y="48" width="64" height="64" rx="8" fill="#0000f0"/>
    <!-- Right (green) -->
    <rect x="400" y="144" width="64" height="64" rx="8" fill="#00d000"/>
    <rect x="400" y="224" width="64" height="64" rx="8" fill="#00d000"/>
    <rect x="400" y="304" width="64" height="64" rx="8" fill="#00d000"/>
    <!-- Front (red) -->
    <rect x="144" y="400" width="64" height="64" rx="8" fill="#e00000"/>
    <rect x="224" y="400" width="64" height="64" rx="8" fill="#e00000"/>
    <rect x="304" y="400" width="64" height="64" rx="8" fill="#e00000"/>
    <!-- Left (orange) -->
    <rect x="48" y="144" width="64" height="64" rx="8" fill="#f0a000"/>
    <rect x="48" y="224" width="64" height="64" rx="8" fill="#f0a000"/>
    <rect x="48" y="304" width="64" height="64" rx="8" fill="#f0a000"/>
    <!-- Yellow U face -->
    <rect x="144" y="144" width="64" height="64" rx="8" fill="#f0f000"/>
    <rect x="224" y="144" width="64" height="64" rx="8" fill="#f0f000"/>
    <rect x="304" y="144" width="64" height="64" rx="8" fill="#f0f000"/>
    <rect x="144" y="224" width="64" height="64" rx="8" fill="#f0f000"/>
    <rect x="224" y="224" width="64" height="64" rx="8" fill="#f0f000"/>
    <rect x="304" y="224" width="64" height="64" rx="8" fill="#f0f000"/>
    <rect x="144" y="304" width="64" height="64" rx="8" fill="#f0f000"/>
    <rect x="224" y="304" width="64" height="64" rx="8" fill="#f0f000"/>
    <rect x="304" y="304" width="64" height="64" rx="8" fill="#f0f000"/>
  </g>
</svg>
